<svg height="512pt" viewBox="-2 0 512 512" width="512pt" xmlns="http://www.w3.org/2000/svg"><path d="m209.078125 215h-30v-43.40625l30-19.46875zm0 0" fill="#4f4f4f"/><path d="m470.5625 75.835938h-127.816406l-40.003906 152.496093h167.820312l-29.566406-76.246093zm0 0" fill="#f00000"/><path d="m302.742188 228.332031v-68.332031l71.417968 11.59375zm0 0" fill="#bd0000"/><path d="m374.160156 0h-101.417968l-16.886719 85.332031 16.886719 86.261719h101.417968zm0 0" fill="#ff2a00"/><path d="m179.078125 0h93.664063v171.59375h-93.664063zm0 0" fill="#ff4b00"/><path d="m423.105469 368.910156c-14.007813-23.398437-38.648438-37.367187-65.917969-37.367187-27.265625 0-51.90625 13.96875-65.914062 37.367187l96.878906 143.089844h120.609375zm0 0" fill="#b05f25"/><path d="m272.742188 317.332031-63.761719-108.265625h-29.804688l-64.039062 108.265625 78.21875 10.003907zm0 0" fill="#e1f0f5"/><path d="m388.152344 512-115.410156-194.667969-16.886719 109.335938 16.886719 85.332031zm0 0" fill="#e8863a"/><path d="m0 512h272.742188v-194.667969h-157.605469zm0 0" fill="#f09b59"/></svg>