<svg id="Layer_1" enable-background="new 0 0 512.654 512.654" height="512" viewBox="0 0 512.654 512.654" width="512" xmlns="http://www.w3.org/2000/svg"><g><g><path d="m331.494 242.556c-20.75 0-52.003-25.466-72.462-47.273-17.518-18.673-46.906-55.388-46.906-91.487 0-38.42 31.256-69.676 69.675-69.676 19.146 0 36.84 7.623 49.692 20.749 12.852-13.126 30.546-20.749 49.693-20.749 38.419 0 69.675 31.256 69.675 69.676 0 39.199-29.479 75.571-47.051 93.762-21.634 22.397-52.385 44.998-72.316 44.998z" fill="#ff415b"/></g><path clip-rule="evenodd" d="m511.647 324.857-.303-.524c-22.892-39.644-73.111-53.724-114.326-32.058l-94.34 48.985c2.476-13.363-2.199-27.889-17.862-36.932l-61.896-35.735c-6.02-4.378-13.413-6.969-21.382-6.969l-134.023.731v140.991h61.08l118.794 68.726c7.442 4.305 15.159 6.463 22.605 6.463 6.992 0 13.747-1.902 19.813-5.715l219.338-137.86c3.415-2.147 4.521-6.61 2.502-10.103z" fill="#ffe4c1" fill-rule="evenodd"/><path d=""/><path d="m300.721 389.972c20.143-11.629 33.158-34.173 33.158-57.432 0-2.45-.154-4.864-.442-7.24l-30.717 15.949c-2.455 9.38-8.672 17.934-16.999 22.742-6.662 3.847-17.465 6.772-31.177-1.032l-54.4-34.562c-6.991-4.442-16.262-2.375-20.705 4.617-4.442 6.993-2.375 16.263 4.617 20.705l54.686 34.743c.179.114.36.224.544.33 10.446 6.031 21.485 9.054 32.325 9.054 10.092 0 20.011-2.621 29.11-7.874z" fill="#fdd1a3"/><g><path d="m101.021 454.323h-86.021c-8.284 0-15-6.716-15-15v-208.872c0-8.284 6.716-15 15-15h86.021c8.284 0 15 6.716 15 15v208.873c0 8.284-6.715 14.999-15 14.999z" fill="#b9dd39"/></g><path clip-rule="evenodd" d="m511.647 324.857-.303-.524c-22.892-39.644-73.111-53.724-114.326-32.058l-65.501 34.01v120.318l177.628-111.643c3.415-2.147 4.521-6.61 2.502-10.103z" fill="#fdd1a3" fill-rule="evenodd"/><path d="m381.186 34.12c-19.135 0-36.819 7.615-49.669 20.726v187.709c19.932-.017 50.667-22.608 72.294-44.997 17.572-18.191 47.051-54.563 47.051-93.762 0-38.42-31.257-69.676-69.676-69.676z" fill="#e50058"/></g></svg>